nColumns=19
nRows=120
DataType=double
version=3
OpenSimVersion=4.1
endheader
time	ground_force_1_vx	ground_force_1_vy	ground_force_1_vz	ground_force_1_px	ground_force_1_py	ground_force_1_pz	ground_force_1_mx	ground_force_1_my	ground_force_1_mz	ground_force_2_vx	ground_force_2_vy	ground_force_2_vz	ground_force_2_px	ground_force_2_py	ground_force_2_pz	ground_force_2_mx	ground_force_2_my	ground_force_2_mz
1.48	0	0	0	-0.000266212	0	-0.000504127	0	0	0	-4.33454	20.1018	3.55917	1.08234	0	-0.371946	-0	1.43791	-0
1.49	0	0	0	-0.000266212	0	-0.000504127	0	0	0	-11.8739	86.3025	10.167	1.12671	0	-0.389931	0	-2.84132	0
1.5	0	0	0	-0.000266212	0	-0.000504127	0	0	0	-33.8288	291.867	27.201	1.11932	0	-0.387431	0	-7.38707	0
1.51	0	0	0	-0.000266212	0	-0.000504127	0	0	0	-79.1368	684.899	54.3402	1.11178	0	-0.379018	0	-10.6536	0
1.52	0	0	0	-0.000266212	0	-0.000504127	0	0	0	-139.922	1112.79	71.3391	1.10579	0	-0.369435	0	-11.3433	0
1.53	0	0	0	-0.000266212	0	-0.000504127	0	0	0	-193.975	1369.53	48.1831	1.09569	0	-0.365265	0	-9.23021	0
1.54	0	0	0	-0.000266212	0	-0.000504127	0	0	0	-227.278	1483.28	-8.18736	1.07556	0	-0.369045	0	-5.48752	0
1.55	0	0	0	-0.000266212	0	-0.000504127	0	0	0	-230.847	1595.87	-45.6387	1.04624	0	-0.372386	0	-2.00787	0
1.56	0	0	0	-0.000266212	0	-0.000504127	0	0	0	-199.17	1753.69	-35.3789	1.01105	0	-0.369979	0	-0.106029	0
1.57	0	0	0	-0.000266212	0	-0.000504127	0	0	0	-132.454	1884.02	-8.52913	0.973734	0	-0.368012	-0	0.258977	-0
1.58	0	0	0	-0.000266212	0	-0.000504127	0	0	0	-59.642	1915.71	-2.75481	0.938392	0	-0.369644	-0	0.129491	-0
1.59	0	0	0	-0.000266212	0	-0.000504127	0	0	0	0.789972	1856.33	-16.5756	0.90495	0	-0.370869	-0	0.611509	-0
1.6	0	0	0	-0.000266212	0	-0.000504127	0	0	0	62.5507	1735.27	-32.6677	0.870585	0	-0.368708	-0	2.20774	-0
1.61	0	0	0	-0.000266212	0	-0.000504127	0	0	0	130.726	1551.21	-47.1307	0.833913	0	-0.365313	-0	4.67906	-0
1.62	0	0	0	-0.000266212	0	-0.000504127	0	0	0	196.454	1305.06	-61.3903	0.793275	0	-0.363206	-0	7.24649	-0
1.63	0	0	0	-0.000266212	0	-0.000504127	0	0	0	240.676	1028.77	-69.77	0.748852	0	-0.362416	-0	8.96981	-0
1.64	0	0	0	-0.000266212	0	-0.000504127	0	0	0	241.73	760.71	-65.8573	0.707406	0	-0.361705	-0	9.18696	-0
1.65	0	0	0	-0.000266212	0	-0.000504127	0	0	0	206.763	522.097	-52.1529	0.676525	0	-0.36058	-0	7.81748	-0
1.66	0	0	0	-0.000266212	0	-0.000504127	0	0	0	159.075	322.714	-36.6717	0.654556	0	-0.359939	-0	5.36001	-0
1.67	0	0	0	-0.000266212	0	-0.000504127	0	0	0	105.694	171.964	-24.044	0.636008	0	-0.359744	-0	2.6168	-0
1.68	0	0	0	-0.000266212	0	-0.000504127	0	0	0	52.9598	76.0975	-14.3693	0.622996	0	-0.356501	-0	0.340872	-0
1.69	0	0	0	-0.000266212	0	-0.000504127	0	0	0	16.9572	28.2024	-7.13402	0.654502	0	-0.339366	0	-1.02256	0
1.7	0	0	0	-0.000266212	0	-0.000504127	0	0	0	2.30145	10.4441	-2.5195	0.860942	0	-0.280349	0	-1.43834	0
1.71	0	0	0	-0.000266212	0	-0.000504127	0	0	0	0	0	0	-0.000266212	0	-0.000504127	0	0	0
1.72	0	0	0	-0.000266212	0	-0.000504127	0	0	0	0	0	0	-0.000266212	0	-0.000504127	0	0	0
1.73	0	0	0	-0.000266212	0	-0.000504127	0	0	0	0	0	0	-0.000266212	0	-0.000504127	0	0	0
1.74	0	0	0	-0.000266212	0	-0.000504127	0	0	0	0	0	0	-0.000266212	0	-0.000504127	0	0	0
1.75	0	0	0	-0.000266212	0	-0.000504127	0	0	0	0	0	0	-0.000266212	0	-0.000504127	0	0	0
1.76	0	0	0	-0.000266212	0	-0.000504127	0	0	0	0	0	0	-0.000266212	0	-0.000504127	0	0	0
1.77	0	0	0	-0.000266212	0	-0.000504127	0	0	0	0	0	0	-0.000266212	0	-0.000504127	0	0	0
1.78	-4.00612	14.4753	-7.93964	1.20844	0	-0.287905	0	-0.400177	0	0	0	0	-0.000266212	0	-0.000504127	0	0	0
1.79	-20.5382	58.7654	-20.7804	1.1968	0	-0.326963	-0	3.48459	-0	0	0	0	-0.000266212	0	-0.000504127	0	0	0
1.8	-69.089	204.955	-40.2528	1.18733	0	-0.335992	-0	8.41538	-0	0	0	0	-0.000266212	0	-0.000504127	0	0	0
1.81	-132.049	503.287	-58.1283	1.18034	0	-0.337326	-0	13.0496	-0	0	0	0	-0.000266212	0	-0.000504127	0	0	0
1.82	-133.757	867.095	-61.1992	1.15939	0	-0.339238	-0	15.9179	-0	0	0	0	-0.000266212	0	-0.000504127	0	0	0
1.83	-106.508	1178.84	-42.3007	1.12402	0	-0.344253	-0	16.0915	-0	0	0	0	-0.000266212	0	-0.000504127	0	0	0
1.84	-151.381	1411.98	-5.27029	1.09131	0	-0.350701	-0	13.6131	-0	0	0	0	-0.000266212	0	-0.000504127	0	0	0
1.85	-195.615	1590.28	36.6118	1.06112	0	-0.355382	-0	9.42959	-0	0	0	0	-0.000266212	0	-0.000504127	0	0	0
1.86	-170.358	1760.94	66.7401	1.02329	0	-0.357958	-0	4.87108	-0	0	0	0	-0.000266212	0	-0.000504127	0	0	0
1.87	-105.282	1901.92	80.276	0.983149	0	-0.359203	-0	1.01367	-0	0	0	0	-0.000266212	0	-0.000504127	0	0	0
1.88	-42.0503	1957.01	85.2598	0.9486	0	-0.360182	0	-1.66493	0	0	0	0	-0.000266212	0	-0.000504127	0	0	0
1.89	16.3432	1928.84	89.3988	0.916347	0	-0.361447	0	-3.19824	0	0	0	0	-0.000266212	0	-0.000504127	0	0	0
1.9	78.39	1835.42	94.9259	0.882357	0	-0.36269	0	-3.81672	0	0	0	0	-0.000266212	0	-0.000504127	0	0	0
1.91	131.353	1676.24	98.9397	0.847277	0	-0.363917	0	-3.6929	0	0	0	0	-0.000266212	0	-0.000504127	0	0	0
1.92	177.643	1446.93	96.0051	0.808898	0	-0.365644	0	-2.89505	0	0	0	0	-0.000266212	0	-0.000504127	0	0	0
1.93	222.853	1157.46	84.081	0.764102	0	-0.36804	0	-1.50512	0	0	0	0	-0.000266212	0	-0.000504127	0	0	0
1.94	242.677	851.517	66.6082	0.719251	0	-0.369841	-0	0.261417	-0	0	0	0	-0.000266212	0	-0.000504127	0	0	0
1.95	214.951	577.718	48.5488	0.686162	0	-0.370045	-0	2.05443	-0	0	0	0	-0.000266212	0	-0.000504127	0	0	0
1.96	162.401	361.285	32.5858	0.66716	0	-0.368053	-0	3.49544	-0	0	0	0	-0.000266212	0	-0.000504127	0	0	0
1.97	108.854	203.289	19.5705	0.649464	0	-0.364051	-0	4.30572	-0	0	0	0	-0.000266212	0	-0.000504127	0	0	0
1.98	60.2058	96.4342	10.1926	0.610412	0	-0.360328	-0	4.39177	-0	0	0	0	-0.000266212	0	-0.000504127	0	0	0
1.99	22.966	36.1219	4.64874	0.586444	0	-0.353173	-0	3.86748	-0	0	0	0	-0.000266212	0	-0.000504127	0	0	0
2	5.09398	11.6213	2.14935	0.876883	0	-0.307746	-0	3.01314	-0	0	0	0	-0.000266212	0	-0.000504127	0	0	0
2.01	0	0	0	-0.000266212	0	-0.000504127	0	0	0	0	0	0	-0.000266212	0	-0.000504127	0	0	0
2.02	0	0	0	-0.000266212	0	-0.000504127	0	0	0	0	0	0	-0.000266212	0	-0.000504127	0	0	0
2.03	0	0	0	-0.000266212	0	-0.000504127	0	0	0	0	0	0	-0.000266212	0	-0.000504127	0	0	0
2.04	0	0	0	-0.000266212	0	-0.000504127	0	0	0	0	0	0	-0.000266212	0	-0.000504127	0	0	0
2.05	0	0	0	-0.000266212	0	-0.000504127	0	0	0	0	0	0	-0.000266212	0	-0.000504127	0	0	0
2.06	0	0	0	-0.000266212	0	-0.000504127	0	0	0	0	0	0	-0.000266212	0	-0.000504127	0	0	0
2.07	0	0	0	-0.000266212	0	-0.000504127	0	0	0	0	0	0	-0.000266212	0	-0.000504127	0	0	0
2.08	0	0	0	-0.000266212	0	-0.000504127	0	0	0	-6.5152	22.4335	0.508293	1.21711	0	-0.328759	0	-0.934885	0
2.09	0	0	0	-0.000266212	0	-0.000504127	0	0	0	-27.2716	86.9159	3.40887	1.20205	0	-0.358816	0	-4.78178	0
2.1	0	0	0	-0.000266212	0	-0.000504127	0	0	0	-67.5913	277.908	13.8985	1.2107	0	-0.362276	0	-9.20633	0
2.11	0	0	0	-0.000266212	0	-0.000504127	0	0	0	-111.335	638.697	33.6197	1.21055	0	-0.35605	0	-12.9621	0
2.12	0	0	0	-0.000266212	0	-0.000504127	0	0	0	-147.593	1022.77	48.5849	1.20191	0	-0.347651	0	-14.8082	0
2.13	0	0	0	-0.000266212	0	-0.000504127	0	0	0	-191.834	1230.24	33.7984	1.18635	0	-0.343321	0	-14.1923	0
2.14	0	0	0	-0.000266212	0	-0.000504127	0	0	0	-244.291	1309.2	-8.53987	1.16368	0	-0.346433	0	-11.6255	0
2.15	0	0	0	-0.000266212	0	-0.000504127	0	0	0	-275.642	1418.04	-37.4796	1.13541	0	-0.349562	0	-8.31045	0
2.16	0	0	0	-0.000266212	0	-0.000504127	0	0	0	-261.644	1598.7	-30.7563	1.10093	0	-0.346314	0	-5.26788	0
2.17	0	0	0	-0.000266212	0	-0.000504127	0	0	0	-199.649	1765.69	-17.266	1.06327	0	-0.343312	0	-2.80441	0
2.18	0	0	0	-0.000266212	0	-0.000504127	0	0	0	-127.533	1839.92	-26.1074	1.0292	0	-0.34468	0	-0.733791	0
2.19	0	0	0	-0.000266212	0	-0.000504127	0	0	0	-69.4782	1832.98	-46.4336	0.99781	0	-0.346742	-0	1.13468	-0
2.2	0	0	0	-0.000266212	0	-0.000504127	0	0	0	-14.5421	1790.67	-57.7325	0.964499	0	-0.346182	-0	2.82383	-0
2.21	0	0	0	-0.000266212	0	-0.000504127	0	0	0	40.5366	1714.42	-60.4906	0.931198	0	-0.344806	-0	4.29582	-0
2.22	0	0	0	-0.000266212	0	-0.000504127	0	0	0	83.9438	1587.05	-63.0598	0.901112	0	-0.344211	-0	5.52376	-0
2.23	0	0	0	-0.000266212	0	-0.000504127	0	0	0	118.062	1415.39	-65.6572	0.871568	0	-0.343424	-0	6.45943	-0
2.24	0	0	0	-0.000266212	0	-0.000504127	0	0	0	150.059	1211.72	-64.8372	0.838765	0	-0.341644	-0	7.01042	-0
2.25	0	0	0	-0.000266212	0	-0.000504127	0	0	0	172.377	974.847	-60.3814	0.800411	0	-0.340058	-0	7.07289	-0
2.26	0	0	0	-0.000266212	0	-0.000504127	0	0	0	180.698	719.754	-53.7982	0.753465	0	-0.340345	-0	6.58755	-0
2.27	0	0	0	-0.000266212	0	-0.000504127	0	0	0	168.337	489.018	-44.7631	0.705246	0	-0.342323	-0	5.59463	-0
2.28	0	0	0	-0.000266212	0	-0.000504127	0	0	0	135.274	308.979	-32.7243	0.672917	0	-0.343873	-0	4.27135	-0
2.29	0	0	0	-0.000266212	0	-0.000504127	0	0	0	92.539	176.967	-20.1899	0.66775	0	-0.343859	-0	2.91189	-0
2.3	0	0	0	-0.000266212	0	-0.000504127	0	0	0	52.1812	85.7773	-10.422	0.680288	0	-0.344344	-0	1.82463	-0
2.31	0	0	0	-0.000266212	0	-0.000504127	0	0	0	20.3917	32.6524	-4.17679	0.685477	0	-0.338927	-0	1.19476	-0
2.32	0	0	0	-0.000266212	0	-0.000504127	0	0	0	3.71652	10.5684	-0.716954	0.623056	0	-0.286363	-0	0.997132	-0
2.33	0	0	0	-0.000266212	0	-0.000504127	0	0	0	0	0	0	-0.000266212	0	-0.000504127	0	0	0
2.34	0	0	0	-0.000266212	0	-0.000504127	0	0	0	0	0	0	-0.000266212	0	-0.000504127	0	0	0
2.35	0	0	0	-0.000266212	0	-0.000504127	0	0	0	0	0	0	-0.000266212	0	-0.000504127	0	0	0
2.36	0	0	0	-0.000266212	0	-0.000504127	0	0	0	0	0	0	-0.000266212	0	-0.000504127	0	0	0
2.37	0	0	0	-0.000266212	0	-0.000504127	0	0	0	0	0	0	-0.000266212	0	-0.000504127	0	0	0
2.38	0	0	0	-0.000266212	0	-0.000504127	0	0	0	0	0	0	-0.000266212	0	-0.000504127	0	0	0
2.39	0	0	0	-0.000266212	0	-0.000504127	0	0	0	0	0	0	-0.000266212	0	-0.000504127	0	0	0
2.4	0	0	0	-0.000266212	0	-0.000504127	0	0	0	0	0	0	-0.000266212	0	-0.000504127	0	0	0
2.41	-10.064	29.6232	-13.0334	1.29964	0	-0.294883	-0	0.127178	-0	0	0	0	-0.000266212	0	-0.000504127	0	0	0
2.42	-41.9634	118.237	-28.8122	1.25192	0	-0.307881	-0	4.02054	-0	0	0	0	-0.000266212	0	-0.000504127	0	0	0
2.43	-114.055	339.289	-48.759	1.23996	0	-0.311928	-0	7.97331	-0	0	0	0	-0.000266212	0	-0.000504127	0	0	0
2.44	-177.254	665.313	-61.4076	1.2271	0	-0.315489	-0	10.5893	-0	0	0	0	-0.000266212	0	-0.000504127	0	0	0
2.45	-178.709	971.309	-53.9747	1.19619	0	-0.321503	-0	10.8485	-0	0	0	0	-0.000266212	0	-0.000504127	0	0	0
2.46	-194.453	1204.04	-24.7606	1.15827	0	-0.328378	-0	8.6595	-0	0	0	0	-0.000266212	0	-0.000504127	0	0	0
2.47	-241.558	1377.71	12.9693	1.1258	0	-0.333356	-0	4.92219	-0	0	0	0	-0.000266212	0	-0.000504127	0	0	0
2.48	-240.994	1554.39	40.5802	1.08934	0	-0.33652	-0	1.02362	-0	0	0	0	-0.000266212	0	-0.000504127	0	0	0
2.49	-181.067	1749.06	52.3936	1.04748	0	-0.338201	0	-1.89104	0	0	0	0	-0.000266212	0	-0.000504127	0	0	0
2.5	-114.259	1890.87	57.3642	1.01032	0	-0.338404	0	-3.38513	0	0	0	0	-0.000266212	0	-0.000504127	0	0	0
2.51	-66.5763	1939.39	62.1248	0.980454	0	-0.338473	0	-3.71588	0	0	0	0	-0.000266212	0	-0.000504127	0	0	0
2.52	-21.5229	1918.47	66.8913	0.952285	0	-0.338987	0	-3.49791	0	0	0	0	-0.000266212	0	-0.000504127	0	0	0
2.53	28.0233	1849.88	71.6463	0.923484	0	-0.339313	0	-3.31011	0	0	0	0	-0.000266212	0	-0.000504127	0	0	0
2.54	76.2066	1736.72	75.4502	0.894434	0	-0.33944	0	-3.42305	0	0	0	0	-0.000266212	0	-0.000504127	0	0	0
2.55	116.57	1572.45	76.3306	0.865282	0	-0.340001	0	-3.73019	0	0	0	0	-0.000266212	0	-0.000504127	0	0	0
2.56	144.351	1354.35	73.7643	0.836521	0	-0.341093	0	-3.86971	0	0	0	0	-0.000266212	0	-0.000504127	0	0	0
2.57	158.543	1089.76	67.7916	0.80835	0	-0.342152	0	-3.44867	0	0	0	0	-0.000266212	0	-0.000504127	0	0	0
2.58	161.625	796.398	57.6687	0.776416	0	-0.342959	0	-2.2664	0	0	0	0	-0.000266212	0	-0.000504127	0	0	0
2.59	155.412	513.734	43.2125	0.73549	0	-0.343636	0	-0.448556	0	0	0	0	-0.000266212	0	-0.000504127	0	0	0
2.6	130.721	289.673	27.1355	0.695548	0	-0.34358	-0	1.57053	-0	0	0	0	-0.000266212	0	-0.000504127	0	0	0
2.61	87.1245	141.815	14.1142	0.677607	0	-0.342272	-0	3.21894	-0	0	0	0	-0.000266212	0	-0.000504127	0	0	0
2.62	41.0036	59.4362	6.48382	0.710691	0	-0.337725	-0	4.02614	-0	0	0	0	-0.000266212	0	-0.000504127	0	0	0
2.63	13.2211	21.0856	3.08876	0.788699	0	-0.320102	-0	3.80287	-0	0	0	0	-0.000266212	0	-0.000504127	0	0	0
2.64	0	0	0	-0.000266212	0	-0.000504127	0	0	0	0	0	0	-0.000266212	0	-0.000504127	0	0	0
2.65	0	0	0	-0.000266212	0	-0.000504127	0	0	0	0	0	0	-0.000266212	0	-0.000504127	0	0	0
2.66	0	0	0	-0.000266212	0	-0.000504127	0	0	0	0	0	0	-0.000266212	0	-0.000504127	0	0	0
2.67	0	0	0	-0.000266212	0	-0.000504127	0	0	0	0	0	0	-0.000266212	0	-0.000504127	0	0	0
